<?xml version="1.0" encoding="UTF-8"?>
<svg width="1200" height="700" viewBox="0 0 1200 700" fill="none" xmlns="http://www.w3.org/2000/svg">
  <defs>
    <linearGradient id="bg" x1="0" y1="0" x2="0" y2="1">
      <stop offset="0" stop-color="#0b0b10"/>
      <stop offset="1" stop-color="#11111a"/>
    </linearGradient>
    <linearGradient id="paper" x1="0" y1="0" x2="1" y2="1">
      <stop offset="0" stop-color="#f3e9d3"/>
      <stop offset="1" stop-color="#e7d7b6"/>
    </linearGradient>
    <linearGradient id="shadow" x1="0" y1="0" x2="0" y2="1">
      <stop offset="0" stop-color="#000" stop-opacity="0.25"/>
      <stop offset="1" stop-color="#000" stop-opacity="0"/>
    </linearGradient>
    <filter id="soft" x="-20%" y="-20%" width="140%" height="140%" color-interpolation-filters="sRGB">
      <feGaussianBlur stdDeviation="8"/>
    </filter>
  </defs>

  <rect width="1200" height="700" fill="url(#bg)"/>

  <!-- subtle vignette -->
  <ellipse cx="600" cy="390" rx="520" ry="280" fill="#000" fill-opacity="0.35" filter="url(#soft)"/>

  <!-- book base shadow -->
  <path d="M210 520C260 600 410 640 600 640C790 640 940 600 990 520C940 550 790 570 600 570C410 570 260 550 210 520Z" fill="url(#shadow)"/>

  <!-- left page -->
  <path d="M230 160C340 120 470 105 585 120C600 122 610 140 610 160V540C610 560 592 575 572 572C445 554 323 566 240 600C220 608 200 592 200 570V205C200 185 212 167 230 160Z" fill="url(#paper)" stroke="#c9b58a" stroke-width="3"/>

  <!-- right page -->
  <path d="M970 160C860 120 730 105 615 120C600 122 590 140 590 160V540C590 560 608 575 628 572C755 554 877 566 960 600C980 608 1000 592 1000 570V205C1000 185 988 167 970 160Z" fill="url(#paper)" stroke="#c9b58a" stroke-width="3"/>

  <!-- spine -->
  <path d="M590 150C596 132 604 132 610 150V560C604 570 596 570 590 560V150Z" fill="#d5c39b" stroke="#c9b58a" stroke-width="2"/>

  <!-- lines / glyph blocks (illustration vibe) -->
  <g opacity="0.55" stroke="#2b2418" stroke-width="3">
    <path d="M270 220H520"/>
    <path d="M270 260H520"/>
    <path d="M270 300H520"/>
    <path d="M270 340H520"/>
    <path d="M270 380H520"/>
    <path d="M270 420H520"/>

    <path d="M680 220H930"/>
    <path d="M680 260H930"/>
    <path d="M680 300H930"/>
    <path d="M680 340H930"/>
    <path d="M680 380H930"/>
    <path d="M680 420H930"/>
  </g>

  <g opacity="0.75" fill="#2b2418">
    <rect x="310" y="455" width="90" height="90" rx="14"/>
    <rect x="420" y="455" width="90" height="90" rx="14"/>
    <rect x="690" y="455" width="90" height="90" rx="14"/>
    <rect x="800" y="455" width="90" height="90" rx="14"/>
  </g>

  <!-- tiny stars (mystic vibe) -->
  <g opacity="0.55" fill="#e5e7eb">
    <circle cx="140" cy="120" r="2"/>
    <circle cx="1050" cy="110" r="2"/>
    <circle cx="1080" cy="260" r="1.6"/>
    <circle cx="160" cy="280" r="1.6"/>
    <circle cx="230" cy="80" r="1.3"/>
    <circle cx="950" cy="70" r="1.3"/>
  </g>
</svg>
